<svg width="16" height="16" viewBox="0 0 16 16" fill="none" xmlns="http://www.w3.org/2000/svg">
<path fill-rule="evenodd" clip-rule="evenodd" d="M9.80067 1.33325C12.062 1.33325 13.3593 2.45259 13.3593 4.40259V14.0933C13.3593 14.4999 13.15 14.8659 12.798 15.0706C12.4473 15.2759 12.0247 15.2799 11.67 15.0799L7.69667 12.8353L3.68667 15.0846C3.51333 15.1819 3.32333 15.2313 3.13267 15.2313C2.936 15.2313 2.73933 15.1786 2.56067 15.0733C2.20933 14.8686 2 14.5026 2 14.0966V4.28059C2 2.40725 3.298 1.33325 5.56133 1.33325H9.80067ZM9.80067 2.33325H5.56133C3.862 2.33325 3 2.98792 3 4.28059V14.0966C3 14.1593 3.036 14.1933 3.066 14.2106C3.096 14.2293 3.14333 14.2426 3.198 14.2119L7.45267 11.8253C7.60467 11.7406 7.79067 11.7399 7.94333 11.8259L12.1613 14.2086C12.2167 14.2406 12.264 14.2259 12.294 14.2079C12.324 14.1899 12.3593 14.1559 12.3593 14.0933L12.3591 4.32662C12.354 3.75283 12.243 2.33325 9.80067 2.33325Z" fill="#9A9898"/>
</svg>
