<svg width="20" height="20" viewBox="0 0 20 20" fill="none" xmlns="http://www.w3.org/2000/svg">
<path fill-rule="evenodd" clip-rule="evenodd" d="M10.1956 3.36593C11.5506 2.50927 13.3506 2.2726 14.9056 2.77093C18.2881 3.86177 19.3381 7.54926 18.399 10.4834C16.9498 15.0918 10.7606 18.5293 10.4981 18.6734C10.4048 18.7251 10.3015 18.7509 10.1981 18.7509C10.0948 18.7509 9.9923 18.7259 9.89897 18.6751C9.63814 18.5326 3.49397 15.1459 1.99647 10.4843L1.99563 10.4834C1.05563 7.54843 2.1023 3.8601 5.48147 2.77093C7.06814 2.2576 8.7973 2.48343 10.1956 3.36593ZM5.8648 3.96093C3.13063 4.8426 2.44397 7.78343 3.18647 10.1026C4.3548 13.7376 8.97064 16.6768 10.1973 17.4043C11.4281 16.6693 16.0773 13.6976 17.2081 10.1059C17.9506 7.78427 17.2615 4.84343 14.5231 3.96093C13.1965 3.5351 11.649 3.79427 10.5806 4.62093C10.3573 4.7926 10.0473 4.79593 9.8223 4.62593C8.69064 3.7751 7.2123 3.52593 5.8648 3.96093Z" fill="#585B59"/>
</svg>
