<svg width="16" height="17" viewBox="0 0 16 17" fill="none" xmlns="http://www.w3.org/2000/svg">
<path fill-rule="evenodd" clip-rule="evenodd" d="M8.15644 3.19275C9.24044 2.50741 10.6804 2.31808 11.9244 2.71675C14.6304 3.58941 15.4704 6.53941 14.7191 8.88675C13.5598 12.5734 8.60844 15.3234 8.39844 15.4387C8.32377 15.4801 8.2411 15.5007 8.15844 15.5007C8.07577 15.5007 7.99377 15.4807 7.9191 15.4401C7.71044 15.3261 2.7951 12.6167 1.5971 8.88741L1.59643 8.88675C0.844434 6.53875 1.68177 3.58808 4.3851 2.71675C5.65444 2.30608 7.03777 2.48675 8.15644 3.19275ZM4.69177 3.66875C2.50443 4.37408 1.9551 6.72675 2.5491 8.58208C3.48377 11.4901 7.17644 13.8414 8.15777 14.4234C9.14244 13.8354 12.8618 11.4581 13.7664 8.58475C14.3604 6.72741 13.8091 4.37475 11.6184 3.66875C10.5571 3.32808 9.3191 3.53541 8.46444 4.19675C8.28577 4.33408 8.03777 4.33675 7.85777 4.20075C6.95244 3.52008 5.76977 3.32075 4.69177 3.66875Z" fill="#585B59"/>
</svg>
