<svg width="24" height="24" viewBox="0 0 24 24" fill="none" xmlns="http://www.w3.org/2000/svg">
<path fill-rule="evenodd" clip-rule="evenodd" d="M15.9483 11.0137C16.5013 11.0137 16.9483 11.4607 16.9483 12.0137C16.9483 12.5667 16.5013 13.0137 15.9483 13.0137C15.3953 13.0137 14.9433 12.5667 14.9433 12.0137C14.9433 11.4607 15.3863 11.0137 15.9383 11.0137H15.9483ZM11.9386 11.0137C12.4916 11.0137 12.9386 11.4607 12.9386 12.0137C12.9386 12.5667 12.4916 13.0137 11.9386 13.0137C11.3856 13.0137 10.9346 12.5667 10.9346 12.0137C10.9346 11.4607 11.3766 11.0137 11.9296 11.0137H11.9386ZM7.9298 11.0137C8.4828 11.0137 8.9298 11.4607 8.9298 12.0137C8.9298 12.5667 8.4828 13.0137 7.9298 13.0137C7.3768 13.0137 6.9248 12.5667 6.9248 12.0137C6.9248 11.4607 7.36781 11.0137 7.9208 11.0137H7.9298Z" fill="#F7F7F7"/>
</svg>
