<svg width="32" height="32" viewBox="0 0 32 32" fill="none" xmlns="http://www.w3.org/2000/svg">
<path fill-rule="evenodd" clip-rule="evenodd" d="M15.6667 9.76953C16.2187 9.76953 16.6667 10.2175 16.6667 10.7695V14.6531L20.5554 14.6534C21.1074 14.6534 21.5554 15.1014 21.5554 15.6534C21.5554 16.2054 21.1074 16.6534 20.5554 16.6534L16.6667 16.6531V20.5389C16.6667 21.0909 16.2187 21.5389 15.6667 21.5389C15.1147 21.5389 14.6667 21.0909 14.6667 20.5389V16.6531L10.7781 16.6534C10.2247 16.6534 9.77808 16.2054 9.77808 15.6534C9.77808 15.1014 10.2247 14.6534 10.7781 14.6534L14.6667 14.6531V10.7695C14.6667 10.2175 15.1147 9.76953 15.6667 9.76953Z" fill="#F7F7F7"/>
</svg>
