<svg width="21" height="20" viewBox="0 0 21 20" fill="none" xmlns="http://www.w3.org/2000/svg">
<path fill-rule="evenodd" clip-rule="evenodd" d="M10.2823 1.6665C14.7573 1.6665 18.3973 5.3065 18.3973 9.7815C18.3973 11.8928 17.5871 13.8184 16.2612 15.2636L18.8702 17.8671C19.1143 18.1113 19.1152 18.5063 18.871 18.7504C18.7493 18.8738 18.5885 18.9346 18.4285 18.9346C18.2693 18.9346 18.1093 18.8738 17.9868 18.7521L15.3464 16.119C13.9574 17.2314 12.1962 17.8973 10.2823 17.8973C5.80734 17.8973 2.1665 14.2565 2.1665 9.7815C2.1665 5.3065 5.80734 1.6665 10.2823 1.6665ZM10.2823 2.9165C6.4965 2.9165 3.4165 5.99567 3.4165 9.7815C3.4165 13.5673 6.4965 16.6473 10.2823 16.6473C14.0673 16.6473 17.1473 13.5673 17.1473 9.7815C17.1473 5.99567 14.0673 2.9165 10.2823 2.9165Z" fill="#585B59"/>
</svg>
