<svg width="20" height="20" viewBox="0 0 20 20" fill="none" xmlns="http://www.w3.org/2000/svg">
<path d="M16.3875 14.0091C16.1568 14.547 15.8717 15.06 15.5367 15.5399C15.0892 16.1791 14.7217 16.6208 14.44 16.8666C14.0025 17.2683 13.5325 17.4749 13.03 17.4866C12.67 17.4866 12.235 17.3841 11.7284 17.1758C11.22 16.9683 10.7534 16.8666 10.3259 16.8666C9.87837 16.8666 9.39837 16.9683 8.8842 17.1758C8.37087 17.3841 7.95587 17.4933 7.63837 17.5033C7.15754 17.5241 6.6767 17.3124 6.19754 16.8666C5.8917 16.5999 5.5092 16.1416 5.05004 15.4933C4.55837 14.8024 4.1542 13.9983 3.83754 13.0841C3.49837 12.0949 3.32837 11.1383 3.32837 10.2116C3.32837 9.15077 3.55754 8.23494 4.0167 7.46827C4.36399 6.86616 4.86049 6.36363 5.45837 6.0091C6.04793 5.6555 6.72094 5.46509 7.40837 5.45744C7.7917 5.45744 8.2942 5.57577 8.9167 5.8091C9.5392 6.04244 9.9392 6.16077 10.1134 6.16077C10.245 6.16077 10.6875 6.02161 11.4409 5.74577C12.1517 5.48994 12.7517 5.3841 13.2434 5.42577C14.5767 5.53327 15.5775 6.05827 16.2434 7.00494C15.0517 7.72744 14.4625 8.73827 14.4742 10.0358C14.4842 11.0466 14.8517 11.8874 15.5717 12.5549C15.89 12.8596 16.2614 13.1033 16.6675 13.2741C16.5792 13.5299 16.4859 13.7741 16.3875 14.0091ZM13.3317 1.98327C13.3317 2.77494 13.0417 3.51494 12.4659 4.19911C11.7692 5.01244 10.9275 5.48327 10.015 5.40911C10.0031 5.30955 9.99726 5.20937 9.99754 5.1091C9.99754 4.34827 10.3275 3.53494 10.9167 2.8691C11.21 2.53244 11.5834 2.2516 12.0359 2.02827C12.4875 1.80827 12.9142 1.6866 13.3159 1.66577C13.3267 1.77244 13.3317 1.87827 13.3317 1.98327Z" fill="#F7F7F7"/>
</svg>
