<svg width="20" height="20" viewBox="0 0 20 20" fill="none" xmlns="http://www.w3.org/2000/svg">
<path d="M16.9025 8.62993H9.96334V11.5058H13.9567C13.585 13.3333 12.0292 14.3833 9.96334 14.3833C9.38529 14.3842 8.81273 14.2711 8.2785 14.0503C7.74426 13.8295 7.25887 13.5055 6.85017 13.0967C6.44146 12.6879 6.11747 12.2024 5.89679 11.6682C5.67611 11.1339 5.56308 10.5613 5.56418 9.98326C5.56319 9.40528 5.6763 8.83278 5.89703 8.2986C6.11776 7.76443 6.44176 7.27907 6.85046 6.87038C7.25916 6.46168 7.74451 6.13768 8.27869 5.91695C8.81287 5.69622 9.38536 5.58311 9.96334 5.58409C11.0125 5.58409 11.9608 5.95659 12.705 6.56576L14.8717 4.39993C13.5517 3.24909 11.8592 2.53909 9.96334 2.53909C8.98485 2.53623 8.01545 2.72685 7.11089 3.09999C6.20633 3.47312 5.38446 4.0214 4.69256 4.71331C4.00065 5.40521 3.45237 6.22707 3.07924 7.13163C2.7061 8.0362 2.51548 9.0056 2.51834 9.98409C2.51537 10.9626 2.70592 11.9321 3.07901 12.8367C3.4521 13.7413 4.00039 14.5632 4.69231 15.2551C5.38423 15.9471 6.20615 16.4953 7.11076 16.8684C8.01537 17.2415 8.98482 17.4321 9.96334 17.4291C13.6858 17.4291 17.0708 14.7216 17.0708 9.98409C17.0708 9.54409 17.0033 9.06993 16.9025 8.62993Z" fill="#F7F7F7"/>
</svg>
