<svg width="16" height="16" viewBox="0 0 16 16" fill="none" xmlns="http://www.w3.org/2000/svg">
<path d="M8.01325 1.33325C11.7999 1.33325 14.6666 4.43791 14.6666 7.9899C14.6666 12.1094 11.3066 14.6666 7.99992 14.6666C6.90659 14.6666 5.69325 14.3728 4.71992 13.7986C4.37992 13.5916 4.09325 13.4381 3.72659 13.5583L2.37992 13.9589C2.03992 14.0657 1.73325 13.7986 1.83325 13.4381L2.27992 11.9425C2.35325 11.7355 2.33992 11.5152 2.23325 11.3416C1.65992 10.2867 1.33325 9.13162 1.33325 8.00993C1.33325 4.498 4.13992 1.33325 8.01325 1.33325ZM11.0599 7.16199C10.5866 7.16199 10.2066 7.54257 10.2066 8.01661C10.2066 8.48398 10.5866 8.87123 11.0599 8.87123C11.5333 8.87123 11.9133 8.48398 11.9133 8.01661C11.9133 7.54257 11.5333 7.16199 11.0599 7.16199ZM7.98659 7.16199C7.51992 7.15532 7.13325 7.54257 7.13325 8.00993C7.13325 8.48398 7.51325 8.86455 7.98659 8.87123C8.45992 8.87123 8.83992 8.48398 8.83992 8.01661C8.83992 7.54257 8.45992 7.16199 7.98659 7.16199ZM4.91325 7.16199C4.43992 7.16199 4.05992 7.54257 4.05992 8.01661C4.05992 8.48398 4.44659 8.87123 4.91325 8.87123C5.38659 8.86455 5.76659 8.48398 5.76659 8.01661C5.76659 7.54257 5.38659 7.16199 4.91325 7.16199Z" fill="#F7F7F7"/>
</svg>
