<svg width="20" height="20" viewBox="0 0 20 20" fill="none" xmlns="http://www.w3.org/2000/svg">
<path d="M6.89985 2.08362C7.42485 2.09959 7.93318 2.19126 8.42568 2.35876H8.47485C8.50818 2.37459 8.53318 2.39209 8.54985 2.40792C8.73402 2.46709 8.90818 2.53376 9.07485 2.62542L9.39152 2.76709C9.51652 2.83376 9.66652 2.95792 9.74985 3.00876C9.83318 3.05792 9.92485 3.10876 9.99985 3.16626C10.9257 2.45876 12.0499 2.07542 13.2082 2.08362C13.734 2.08362 14.259 2.15792 14.7582 2.32542C17.834 3.32542 18.9424 6.70042 18.0165 9.65042C17.4915 11.1579 16.6332 12.5338 15.509 13.6579C13.8999 15.2163 12.134 16.5996 10.2332 17.7913L10.0249 17.9171L9.80818 17.7829C7.90068 16.5996 6.12485 15.2163 4.50068 13.6496C3.38402 12.5254 2.52485 11.1579 1.99152 9.65042C1.04985 6.70042 2.15818 3.32542 5.26735 2.30792C5.50902 2.22459 5.75818 2.16626 6.00818 2.13376H6.10818C6.34235 2.09959 6.57485 2.08362 6.80818 2.08362H6.89985Z" fill="#F7F7F7"/>
</svg>
