<svg width="16" height="16" viewBox="0 0 16 16" fill="none" xmlns="http://www.w3.org/2000/svg">
<path d="M5.51993 1.6671C5.93993 1.67987 6.3466 1.7532 6.7406 1.8872H6.77993C6.8066 1.89987 6.8266 1.91387 6.83993 1.92654C6.98726 1.97387 7.1266 2.0272 7.25993 2.10054L7.51326 2.21387C7.61326 2.2672 7.73326 2.36654 7.79993 2.4072C7.8666 2.44654 7.93993 2.4872 7.99993 2.5332C8.7406 1.9672 9.63993 1.66054 10.5666 1.6671C10.9873 1.6671 11.4073 1.72654 11.8066 1.86054C14.2673 2.66054 15.1539 5.36054 14.4133 7.72054C13.9933 8.92654 13.3066 10.0272 12.4073 10.9265C11.1199 12.1732 9.70726 13.2799 8.1866 14.2332L8.01993 14.3339L7.8466 14.2265C6.3206 13.2799 4.89993 12.1732 3.6006 10.9199C2.70726 10.0205 2.01993 8.92654 1.59326 7.72054C0.83993 5.36054 1.7266 2.66054 4.21393 1.84654C4.40726 1.77987 4.6066 1.7332 4.8066 1.7072H4.8866C5.07393 1.67987 5.25993 1.6671 5.4466 1.6671H5.51993Z" fill="#F7F7F7"/>
</svg>
