<svg width="24" height="24" viewBox="0 0 24 24" fill="none" xmlns="http://www.w3.org/2000/svg">
<path d="M9.48398 20.7733V17.7156C9.48398 16.9351 10.1549 16.3023 10.9826 16.3023H14.008C14.4055 16.3023 14.7866 16.4512 15.0677 16.7163C15.3487 16.9813 15.5066 17.3408 15.5066 17.7156V20.7733C15.5041 21.0978 15.639 21.4099 15.8814 21.6402C16.1239 21.8705 16.4537 22 16.7978 22H18.8619C19.8259 22.0023 20.7513 21.6428 21.4339 21.0008C22.1164 20.3588 22.5 19.487 22.5 18.5778V9.86686C22.5 9.13246 22.1548 8.43584 21.5575 7.96467L14.5358 2.67587C13.3144 1.74856 11.5643 1.7785 10.3794 2.74698L3.51791 7.96467C2.89236 8.42195 2.51848 9.12064 2.5 9.86686V18.5689C2.5 20.4639 4.12882 22 6.13808 22H8.15504C8.86971 22 9.45052 21.4562 9.4557 20.7822L9.48398 20.7733Z" fill="#F7F7F7"/>
</svg>
