<svg width="149" height="42" viewBox="0 0 149 42" fill="none" xmlns="http://www.w3.org/2000/svg">
<path d="M8.08856 0.16672C5.06456 1.43325 1.7363 5.01165 0.685365 9.50323C-0.645195 15.1941 4.89171 17.6008 5.34587 16.8116C5.8803 15.8844 4.35374 15.5708 4.03921 12.6181C3.63302 8.80453 5.40598 4.54293 7.63739 2.67328C8.05216 2.32608 8.03238 2.80955 8.03238 3.70368L7.94408 22.6559C7.94408 26.7103 7.77664 27.9909 7.47592 29.2557C7.1711 30.5378 6.68128 31.4043 7.05256 31.7377C7.46734 32.111 9.23843 31.223 10.2632 29.7922C11.4926 28.0762 11.9227 26.0154 12.0002 23.7773C12.0935 21.0794 12.0898 16.7983 12.0935 14.3562L12.0562 1.61619C12.0375 0.649253 9.35547 -0.36528 8.08987 0.164853L8.08856 0.16672ZM115.54 19.1401C115.443 21.2479 114.976 22.8953 114.397 24.0574C113.276 26.3071 110.95 27.0057 109.962 23.7718C109.424 22.009 109.399 19.0649 109.786 16.6048C110.178 14.0988 111.28 12.206 113.101 12.3768C114.897 12.5455 115.738 14.8602 115.54 19.1403L115.54 19.1401ZM85.2547 32.2178C85.2304 35.72 84.6792 38.7907 83.4972 39.6844C81.821 40.9491 79.5675 40.0005 80.0342 37.4448C80.4471 35.1833 82.3992 32.8739 85.2595 30.052L85.2549 32.2196L85.2547 32.2178ZM84.7968 19.1203C84.6941 21.04 84.1967 22.9686 83.6536 24.0584C82.5329 26.3081 80.1899 27.0114 79.2188 23.7728C78.5548 21.5598 78.7139 18.6958 79.0424 16.8913C79.4688 14.5499 80.5022 12.3777 82.3576 12.3777C84.1618 12.3777 85.0512 14.3569 84.797 19.1205L84.7968 19.1203ZM67.2533 19.091C67.1432 21.1242 66.7467 22.8239 66.1102 24.0582C64.9584 26.2926 62.6802 27.001 61.6753 23.7726C60.9511 21.4445 61.1975 18.2702 61.4989 16.5555C61.9462 14.0109 63.0658 12.2067 64.8141 12.3779C66.6099 12.5534 67.4827 14.8611 67.2535 19.0914L67.2533 19.091ZM147.652 21.4658C147.213 21.4658 147.012 21.9182 146.847 22.6798C146.272 25.3281 145.668 25.9278 144.887 25.9278C144.016 25.9278 143.234 24.6165 143.033 21.9916C142.875 19.9276 142.901 16.1277 143.103 12.3478C143.144 11.5713 142.93 10.8028 140.847 10.0462C139.95 9.72069 138.647 9.24171 137.999 10.8075C136.166 15.2315 135.449 18.744 135.28 20.1707C135.271 20.2446 135.181 20.2595 135.165 20.087C135.057 18.9443 134.817 16.8676 134.787 12.5043C134.781 11.6531 134.601 10.9284 133.661 10.3352C133.052 9.95029 131.2 9.26933 130.534 10.0795C129.956 10.7421 129.287 12.5248 128.592 14.6379L127.634 17.5172L127.648 11.1252C127.651 10.4619 127.196 10.2411 127.059 10.2012C126.442 10.022 125.226 9.72256 124.707 9.72256C124.07 9.72256 123.914 10.0787 123.914 10.5975L123.813 20.9177L123.815 21.5132C123.463 23.4523 122.32 26.0846 121.077 26.0846C119.833 26.0846 119.248 24.9842 119.248 19.9545C119.248 17.0205 119.336 15.7446 119.38 13.6228L119.451 11.2487C119.441 10.5954 118.312 10.2663 117.786 10.1446C117.258 10.022 116.799 9.97437 116.441 9.99472C115.934 10.0233 115.575 10.3561 115.575 10.8136L115.578 11.5256C114.924 10.4989 113.874 9.78472 113.175 9.57771C111.292 9.01864 109.328 9.51424 107.845 11.5875C106.668 13.2351 105.958 15.1012 105.68 17.7823C105.476 19.7423 105.543 21.7299 105.906 23.4108C105.467 25.3074 104.653 26.0846 103.761 26.0846C102.466 26.0846 101.528 23.9716 101.637 20.3166C101.708 17.9127 102.189 16.2257 102.715 13.7852C102.939 12.7447 102.757 12.2 102.301 11.6781C101.882 11.1993 100.989 10.9547 99.7053 11.2557C98.791 11.4703 97.484 11.7009 96.288 11.878C96.288 11.878 96.3602 11.5902 96.4194 11.0824C96.7304 8.42056 93.8378 8.63635 92.9147 9.48643C92.3641 9.99416 91.9889 10.5928 91.8465 11.6693C91.6206 13.3777 93.014 14.1833 93.014 14.1833C92.5567 16.274 91.4363 19.0094 90.2794 20.9855C89.6596 22.0442 89.1855 22.829 88.5738 23.663L88.5688 22.7329L88.6391 13.6235L88.7106 11.2745C88.7037 10.7966 88.4247 10.6163 87.8445 10.3878C87.3312 10.1859 86.7245 10.0459 86.0954 9.99715C85.3012 9.93517 84.8224 10.3565 84.8351 10.8547C84.8375 10.9488 84.8375 11.5263 84.8375 11.5263C84.1842 10.4997 83.1336 9.78547 82.4347 9.57845C80.552 9.01957 78.5875 9.51499 77.1054 11.5883C75.9279 13.2358 75.1566 15.5479 74.94 17.7625C74.7347 19.8266 74.7739 21.5807 75.0515 23.0582C74.7521 24.5379 73.8914 26.0852 72.9183 26.0852C71.6741 26.0852 70.9661 24.9848 70.9661 19.9551C70.9661 17.021 71.0542 15.7452 71.0975 13.6233L71.1684 11.2493C71.1591 10.596 70.0298 10.2669 69.5041 10.145C68.9542 10.0181 68.4775 9.97101 68.1148 9.99789C67.6337 10.0337 67.2953 10.4646 67.2953 10.7856V11.5259C66.642 10.4993 65.5916 9.78509 64.8925 9.57808C63.0098 9.0192 61.0562 9.52264 59.5632 11.5879C58.5897 12.9347 57.8016 14.4277 57.3979 17.733C57.2806 18.6882 57.2289 19.5825 57.2355 20.4186C56.8472 22.7926 55.1329 25.5287 53.7302 25.5287C52.9095 25.5287 52.1279 23.9369 52.1279 20.5444C52.1279 16.0252 52.4075 9.59133 52.4549 8.97104L54.5699 8.93688C55.4537 8.92717 56.2543 8.94808 57.4315 8.88779C58.0219 8.85792 58.5907 6.73851 57.9814 6.47605C57.7051 6.35733 55.753 6.25336 54.979 6.23712C54.3283 6.22219 52.5169 6.08835 52.5169 6.08835L52.7172 1.36661C52.7493 0.990666 52.2628 0.79728 51.9836 0.67968C51.3052 0.392773 50.6984 0.255387 49.9788 0.107173C48.985 -0.0977865 48.534 0.102693 48.4459 0.941573C48.3152 2.21464 48.2443 5.94349 48.2443 5.94349C47.515 5.94349 45.0235 5.80088 44.294 5.80088C43.6164 5.80088 42.8847 8.71605 43.8218 8.75208L48.0248 8.86781L47.9716 18.0494C47.2859 21.6227 44.871 23.5531 44.871 23.5531C45.3896 21.1891 44.3303 19.4139 42.422 17.9111C41.719 17.3572 40.3313 16.3089 38.7782 15.1602C38.7782 15.1602 39.6776 14.2739 40.4769 12.4908C41.0419 11.2277 41.0664 9.78229 39.6795 9.46347C37.3876 8.93651 35.4981 10.6195 34.9344 12.4165C34.4976 13.8085 34.7306 14.8413 35.5859 15.9147C35.6484 15.9931 35.716 16.0733 35.786 16.1536C35.2685 17.1508 34.5577 18.4933 33.9561 19.5341C32.2854 22.4247 31.0232 24.711 30.0697 24.711C29.3071 24.711 29.3174 22.3898 29.3174 20.2164C29.3174 18.3428 29.4555 15.526 29.5662 12.6097C29.6028 11.6452 29.1205 11.0959 28.3118 10.598C27.8209 10.2956 26.7722 9.70128 26.1652 9.70128C25.2561 9.70128 22.6344 9.82485 20.1569 16.9914C19.8446 17.8948 19.2311 19.5405 19.2311 19.5405L19.2839 10.9226C19.2839 10.7207 19.1764 10.525 18.9298 10.3916C18.5124 10.165 17.3991 9.70128 16.4061 9.70128C15.9338 9.70128 15.6978 9.92099 15.6978 10.3589L15.6114 23.8418C15.6114 24.8663 15.6381 26.0632 15.7395 26.584C15.8408 27.1048 16.0038 27.533 16.2061 27.7861C16.4085 28.0392 16.6422 28.2319 17.0278 28.3114C17.3868 28.3853 19.3518 28.6377 19.4541 27.8867C19.5766 26.987 19.5811 26.0131 20.6133 22.3827C22.2198 16.7304 24.3144 13.9724 25.299 12.993C25.4711 12.8218 25.6677 12.8115 25.6584 13.0919L25.369 20.0583C25.1021 27.0984 26.383 28.4034 28.2133 28.4034C29.6133 28.4034 31.5873 27.0122 33.7013 23.4903L37.2214 17.5926L39.3015 19.5078C40.9727 21.0939 41.5213 22.6013 41.1573 24.0307C40.8788 25.1239 39.8301 26.2521 37.964 25.1554C37.4201 24.8362 37.1878 24.5893 36.6409 24.229C36.3471 24.0356 35.8983 23.9777 35.6292 24.1805C34.9305 24.7072 34.5308 25.3774 34.3025 26.2071C34.0804 27.0144 34.889 27.441 35.7272 27.8124C36.4488 28.1335 37.9998 28.4247 38.989 28.4579C42.8431 28.5886 45.9304 26.5969 48.0796 21.4645C48.4642 25.897 50.1018 28.4055 52.9464 28.4055C54.8486 28.4055 56.7552 25.9471 57.5888 23.5286C57.8281 24.5142 58.1824 25.3718 58.6401 26.0966C60.8322 29.5697 65.0846 28.8219 67.2206 25.873C67.8811 24.9617 67.9817 24.6342 67.9817 24.6342C68.2934 27.4189 70.5358 28.3918 71.8195 28.3918C73.2576 28.3918 74.7424 27.712 75.783 25.3691C75.9049 25.6234 76.038 25.8662 76.1834 26.0964C78.3755 29.5695 82.6279 28.8217 84.7639 25.8728C84.8542 25.7488 84.9424 25.6232 85.0284 25.4963L85.0912 27.3256L83.1246 29.1292C79.8324 32.1494 77.3292 34.4411 77.145 37.1097C76.9086 40.5127 79.6681 41.777 81.756 41.9425C83.9732 42.1186 85.872 40.8935 87.0387 39.1799C88.0653 37.6712 88.737 34.424 88.6877 31.217L88.6102 26.5496C89.7675 25.2056 91.071 23.5075 92.2715 21.5195C93.5796 19.3531 94.9819 16.4437 95.6994 14.1794C95.6994 14.1794 96.9174 14.1899 98.2176 14.1047C98.6335 14.0777 98.7527 14.1626 98.676 14.4673C98.5832 14.8355 97.0337 20.812 98.4477 24.7936C99.4158 27.519 101.598 28.3963 102.892 28.3963C104.406 28.3963 105.855 27.2526 106.631 25.5543C106.724 25.7436 106.822 25.9269 106.929 26.096C109.121 29.5691 113.359 28.8171 115.51 25.8724C115.995 25.2079 116.271 24.6337 116.271 24.6337C116.732 27.5158 118.974 28.4062 120.257 28.4062C121.595 28.4062 122.864 27.858 123.894 25.4214C123.936 26.4942 124.004 27.3713 124.111 27.6478C124.177 27.8169 124.556 28.0291 124.833 28.1318C126.056 28.5854 127.304 28.3707 127.764 28.2774C128.083 28.2126 128.333 27.9563 128.366 27.2937C128.456 25.5543 128.401 22.6319 128.926 20.4598C129.812 16.8148 130.637 15.4011 131.029 14.7011C131.248 14.3091 131.496 14.2442 131.505 14.6593C131.523 15.4993 131.565 17.9652 131.908 21.2791C132.16 23.716 132.496 25.1565 132.754 25.6124C133.492 26.916 134.403 26.9778 135.144 26.9778C135.616 26.9778 136.603 26.8472 136.515 26.0178C136.472 25.6135 136.547 23.1144 137.42 19.5233C137.99 17.1782 138.939 15.0594 139.282 14.2847C139.409 13.9991 139.467 14.2242 139.465 14.2679C139.393 15.8829 139.231 21.1652 139.889 24.0543C140.781 27.9681 143.361 28.406 144.26 28.406C146.179 28.406 147.748 26.9463 148.277 23.1047C148.405 22.1801 148.216 21.4663 147.651 21.4663" fill="#F7F7F7"/>
</svg>
