<svg width="16" height="16" viewBox="0 0 16 16" fill="none" xmlns="http://www.w3.org/2000/svg">
<path d="M14.2902 1.72124C13.9567 1.37898 13.4632 1.25148 13.003 1.38569L2.27192 4.50627C1.78638 4.64116 1.44224 5.02838 1.34954 5.52029C1.25483 6.02092 1.58564 6.65644 2.01781 6.9222L5.37319 8.98446C5.71733 9.19585 6.16151 9.14284 6.44629 8.85561L10.2885 4.98945C10.4819 4.78813 10.8021 4.78813 10.9955 4.98945C11.1889 5.18407 11.1889 5.49948 10.9955 5.70081L7.14658 9.56764C6.86113 9.85419 6.80777 10.3005 7.01786 10.6468L9.06803 14.0358C9.30813 14.4384 9.72163 14.6666 10.1752 14.6666C10.2285 14.6666 10.2885 14.6666 10.3419 14.6599C10.8621 14.5928 11.2756 14.2371 11.429 13.7338L14.6103 3.01645C14.7504 2.5601 14.6236 2.0635 14.2902 1.72124Z" fill="#F7F7F7"/>
</svg>
